<svg width="760" height="760" viewBox="0 0 760 760" fill="none" xmlns="http://www.w3.org/2000/svg">
<circle cx="380" cy="380" r="380" fill="black"/>
<path d="M374.766 166.163C377.012 163.946 380.04 162.703 383.196 162.703L544.416 162.703C555.151 162.703 560.485 175.719 552.838 183.252L306.096 426.314C301.376 430.964 293.781 430.909 289.13 426.19L209.863 345.786C205.212 341.069 205.264 333.475 209.978 328.821L374.766 166.163Z" fill="#83E247"/>
<path d="M384.931 593.262C382.685 595.478 379.657 596.721 376.501 596.721L215.281 596.722C204.547 596.722 199.213 583.706 206.86 576.173L453.601 333.11C458.321 328.461 465.916 328.516 470.568 333.234L549.835 413.638C554.485 418.356 554.434 425.95 549.719 430.603L384.931 593.262Z" fill="white"/>
</svg>
